<svg id="Layer_1" data-name="Layer 1" xmlns="http://www.w3.org/2000/svg" viewBox="0 0 217.61 64.05"><defs><style>.cls-1{fill:#a7a9ac;}.cls-2{fill:#fff;}</style></defs><rect x="0.81" y="0.81" width="216" height="62.44" rx="7.38"/><path class="cls-1" d="M506.3,133.29H305.07a8.19,8.19,0,0,1-8.19-8.19V77.43a8.2,8.2,0,0,1,8.19-8.19H506.3a8.2,8.2,0,0,1,8.19,8.19V125.1A8.19,8.19,0,0,1,506.3,133.29ZM305.07,70.86a6.58,6.58,0,0,0-6.58,6.57V125.1a6.59,6.59,0,0,0,6.58,6.58H506.3a6.59,6.59,0,0,0,6.58-6.58V77.43a6.58,6.58,0,0,0-6.58-6.57Z" transform="translate(-296.88 -69.24)"/><path class="cls-2" d="M369.32,87.46l-.9,3h-2l3.37-10.52h2.45l3.42,10.52h-2.06l-1-3Zm3-1.46-.83-2.59c-.2-.64-.37-1.36-.53-2h0c-.16.6-.31,1.34-.5,2L369.64,86Z" transform="translate(-296.88 -69.24)"/><path class="cls-2" d="M378.55,82.84l1.23,3.85c.22.67.37,1.28.52,1.91h0c.14-.63.31-1.22.52-1.91l1.21-3.85h2l-2.91,7.6H379.3l-2.83-7.6Z" transform="translate(-296.88 -69.24)"/><path class="cls-2" d="M391.75,88.61a9.68,9.68,0,0,0,.13,1.83h-1.74l-.14-.85h0a2.78,2.78,0,0,1-2.25,1,2.26,2.26,0,0,1-2.39-2.26c0-1.91,1.7-2.89,4.51-2.88v-.12c0-.5-.2-1.33-1.54-1.33a4.14,4.14,0,0,0-2.05.56l-.37-1.25a5.48,5.48,0,0,1,2.74-.67c2.44,0,3.14,1.55,3.14,3.22Zm-1.87-1.89c-1.36,0-2.66.27-2.66,1.42a1,1,0,0,0,1.1,1.1,1.57,1.57,0,0,0,1.51-1,1.21,1.21,0,0,0,.05-.42Z" transform="translate(-296.88 -69.24)"/><path class="cls-2" d="M395.42,81.74a1,1,0,1,1,1.09-1,1,1,0,0,1-1.09,1Zm-1,8.7v-7.6h1.92v7.6Z" transform="translate(-296.88 -69.24)"/><path class="cls-2" d="M399.15,79.34h1.92v11.1h-1.92Z" transform="translate(-296.88 -69.24)"/><path class="cls-2" d="M409.74,88.61a10.59,10.59,0,0,0,.13,1.83h-1.73l-.14-.85H408a2.76,2.76,0,0,1-2.25,1,2.26,2.26,0,0,1-2.39-2.26c0-1.91,1.7-2.89,4.51-2.88v-.12c0-.5-.2-1.33-1.54-1.33a4.14,4.14,0,0,0-2,.56l-.37-1.25a5.49,5.49,0,0,1,2.75-.67c2.43,0,3.13,1.55,3.13,3.22Zm-1.87-1.89c-1.36,0-2.65.27-2.65,1.42a1,1,0,0,0,1.09,1.1,1.56,1.56,0,0,0,1.51-1,1.21,1.21,0,0,0,.05-.42Z" transform="translate(-296.88 -69.24)"/><path class="cls-2" d="M412.46,79.34h1.92v4.54h0a2.77,2.77,0,0,1,2.44-1.22c1.85,0,3.18,1.55,3.16,3.86,0,2.73-1.73,4.09-3.45,4.09a2.63,2.63,0,0,1-2.4-1.31h0l-.1,1.14H412.4c0-.52.06-1.36.06-2.13Zm1.92,8a1.64,1.64,0,0,0,.05.45,1.75,1.75,0,0,0,1.7,1.35c1.2,0,1.93-1,1.93-2.5,0-1.35-.64-2.44-1.92-2.44a1.78,1.78,0,0,0-1.7,1.41,2.36,2.36,0,0,0-.06.5Z" transform="translate(-296.88 -69.24)"/><path class="cls-2" d="M422.27,79.34h1.92v11.1h-1.92Z" transform="translate(-296.88 -69.24)"/><path class="cls-2" d="M428.33,87.18a2.06,2.06,0,0,0,2.34,2,6.25,6.25,0,0,0,2.11-.34l.28,1.31a6.86,6.86,0,0,1-2.65.48,3.59,3.59,0,0,1-3.92-3.84c0-2.1,1.28-4.09,3.71-4.09s3.28,2,3.28,3.7a5.11,5.11,0,0,1-.06.82Zm3.34-1.35A1.64,1.64,0,0,0,430.09,84a1.88,1.88,0,0,0-1.76,1.86Z" transform="translate(-296.88 -69.24)"/><path class="cls-2" d="M443,90.61a3.68,3.68,0,0,1-3.81-3.92,3.76,3.76,0,0,1,3.94-4,3.65,3.65,0,0,1,3.77,3.91,3.76,3.76,0,0,1-3.88,4Zm.07-1.39c1.09,0,1.85-1.06,1.85-2.61,0-1.18-.53-2.56-1.84-2.56s-1.9,1.33-1.9,2.59c0,1.47.73,2.58,1.87,2.58Z" transform="translate(-296.88 -69.24)"/><path class="cls-2" d="M449.12,85.1c0-.88,0-1.61-.07-2.26h1.67l.1,1.13h0a2.81,2.81,0,0,1,2.44-1.31c1.33,0,2.7.86,2.7,3.27v4.51h-1.92v-4.3c0-1.09-.41-1.92-1.45-1.92a1.61,1.61,0,0,0-1.5,1.13A1.82,1.82,0,0,0,451,86v4.48h-1.92Z" transform="translate(-296.88 -69.24)"/><path class="cls-2" d="M464.85,80.88v2h1.82v1.43h-1.82v3.34c0,.94.25,1.41,1,1.41a2.6,2.6,0,0,0,.75-.08l0,1.45a4.22,4.22,0,0,1-1.39.2,2.18,2.18,0,0,1-1.65-.62,3,3,0,0,1-.61-2.14V84.27h-1.08V82.84H463V81.41Z" transform="translate(-296.88 -69.24)"/><path class="cls-2" d="M468.81,79.34h1.92v4.53h0a2.54,2.54,0,0,1,.95-.86,2.72,2.72,0,0,1,1.33-.35c1.3,0,2.65.86,2.65,3.3v4.48h-1.92V86.16c0-1.09-.4-1.94-1.46-1.94a1.6,1.6,0,0,0-1.5,1.08,1.81,1.81,0,0,0-.08.58v4.56h-1.92Z" transform="translate(-296.88 -69.24)"/><path class="cls-2" d="M479.78,87.18a2.06,2.06,0,0,0,2.34,2,6.2,6.2,0,0,0,2.11-.34l.28,1.31a6.86,6.86,0,0,1-2.65.48,3.59,3.59,0,0,1-3.92-3.84c0-2.1,1.28-4.09,3.71-4.09s3.28,2,3.28,3.7a5.11,5.11,0,0,1-.06.82Zm3.34-1.35A1.64,1.64,0,0,0,481.54,84a1.88,1.88,0,0,0-1.76,1.86Z" transform="translate(-296.88 -69.24)"/><path class="cls-2" d="M345.44,100.64a9.4,9.4,0,0,1,4.46-7.86,9.58,9.58,0,0,0-7.55-4.08c-3.18-.33-6.26,1.9-7.88,1.9s-4.15-1.87-6.83-1.81A10,10,0,0,0,319.17,94c-3.66,6.34-.93,15.65,2.58,20.78,1.75,2.51,3.8,5.31,6.49,5.21s3.6-1.67,6.77-1.67,4.06,1.67,6.8,1.61,4.59-2.52,6.28-5.06A20.88,20.88,0,0,0,351,109a9,9,0,0,1-5.53-8.33" transform="translate(-296.88 -69.24)"/><path class="cls-2" d="M340.27,85.33a9.23,9.23,0,0,0,2.11-6.61,9.37,9.37,0,0,0-6.07,3.14,8.81,8.81,0,0,0-2.17,6.37,7.75,7.75,0,0,0,6.13-2.9" transform="translate(-296.88 -69.24)"/><path class="cls-2" d="M383.39,119.53h-3.66l-2-6.3h-7l-1.91,6.3h-3.56l6.9-21.44h4.26Zm-6.27-9L375.31,105c-.19-.57-.55-1.92-1.08-4h-.06c-.22.91-.56,2.26-1,4l-1.79,5.59Z" transform="translate(-296.88 -69.24)"/><path class="cls-2" d="M401.13,111.6a8.77,8.77,0,0,1-2.13,6.24,6.21,6.21,0,0,1-4.73,2,4.74,4.74,0,0,1-4.39-2.19h-.07v8.14h-3.43V109.15c0-1.65,0-3.34-.13-5.08h3l.19,2.45h.07a6.11,6.11,0,0,1,9.78-.61,8.52,8.52,0,0,1,1.82,5.69m-3.49.13a6.38,6.38,0,0,0-1-3.72,3.51,3.51,0,0,0-3-1.53,3.63,3.63,0,0,0-2.31.84,3.94,3.94,0,0,0-1.35,2.22,4.8,4.8,0,0,0-.16,1v2.58a4.16,4.16,0,0,0,1,2.85,3.43,3.43,0,0,0,2.69,1.16,3.5,3.5,0,0,0,3-1.49,6.55,6.55,0,0,0,1.09-4" transform="translate(-296.88 -69.24)"/><path class="cls-2" d="M418.91,111.6a8.81,8.81,0,0,1-2.13,6.24,6.21,6.21,0,0,1-4.74,2,4.73,4.73,0,0,1-4.38-2.19h-.07v8.14h-3.43V109.15c0-1.65-.05-3.34-.13-5.08h3l.19,2.45h.07a6.11,6.11,0,0,1,9.78-.61,8.52,8.52,0,0,1,1.82,5.69m-3.49.13a6.38,6.38,0,0,0-1-3.72,3.52,3.52,0,0,0-3-1.53,3.63,3.63,0,0,0-2.31.84,3.94,3.94,0,0,0-1.35,2.22,4.25,4.25,0,0,0-.16,1v2.58a4.11,4.11,0,0,0,1,2.85,3.42,3.42,0,0,0,2.69,1.16,3.5,3.5,0,0,0,3-1.49,6.62,6.62,0,0,0,1.09-4" transform="translate(-296.88 -69.24)"/><path class="cls-2" d="M438.79,113.51a5.73,5.73,0,0,1-1.9,4.46,8.45,8.45,0,0,1-5.84,1.87,10.24,10.24,0,0,1-5.56-1.33l.8-2.87a9.34,9.34,0,0,0,5,1.37,4.71,4.71,0,0,0,3-.87,2.88,2.88,0,0,0,1.08-2.35,3,3,0,0,0-.89-2.19,8.18,8.18,0,0,0-3-1.66c-3.76-1.4-5.63-3.45-5.63-6.15a5.45,5.45,0,0,1,2-4.33,7.76,7.76,0,0,1,5.25-1.69,10.35,10.35,0,0,1,4.86,1l-.85,2.8a8.44,8.44,0,0,0-4.11-1,4.17,4.17,0,0,0-2.83.89,2.55,2.55,0,0,0-.85,1.94,2.61,2.61,0,0,0,1,2.1,11,11,0,0,0,3.12,1.65,10.76,10.76,0,0,1,4.07,2.61,5.46,5.46,0,0,1,1.3,3.72" transform="translate(-296.88 -69.24)"/><path class="cls-2" d="M450.15,106.64h-3.79v7.51c0,1.91.67,2.86,2,2.86a5.9,5.9,0,0,0,1.52-.16l.1,2.61a7.88,7.88,0,0,1-2.67.38,4.09,4.09,0,0,1-3.18-1.24c-.77-.82-1.15-2.22-1.15-4.16v-7.8h-2.26v-2.58H443v-2.82l3.37-1v3.84h3.79Z" transform="translate(-296.88 -69.24)"/><path class="cls-2" d="M467.23,111.67a8.48,8.48,0,0,1-2,5.85,7.26,7.26,0,0,1-5.66,2.35,6.9,6.9,0,0,1-5.42-2.26,8.19,8.19,0,0,1-2-5.69,8.39,8.39,0,0,1,2.08-5.88,7.2,7.2,0,0,1,5.61-2.29,7.07,7.07,0,0,1,5.48,2.26,8.16,8.16,0,0,1,2,5.66m-3.57.11a6.92,6.92,0,0,0-.92-3.67,3.4,3.4,0,0,0-3.08-1.85,3.45,3.45,0,0,0-3.15,1.85,7.08,7.08,0,0,0-.92,3.74,6.91,6.91,0,0,0,.92,3.66,3.47,3.47,0,0,0,3.12,1.85,3.43,3.43,0,0,0,3.08-1.88,6.93,6.93,0,0,0,1-3.7" transform="translate(-296.88 -69.24)"/><path class="cls-2" d="M478.39,107.09a6.19,6.19,0,0,0-1.08-.1,3.26,3.26,0,0,0-2.8,1.37,5.16,5.16,0,0,0-.86,3v8.11h-3.43l0-10.59c0-1.78-.05-3.4-.13-4.86h3l.13,3h.09a5.26,5.26,0,0,1,1.72-2.45,4.16,4.16,0,0,1,2.48-.83,5.52,5.52,0,0,1,.86.06Z" transform="translate(-296.88 -69.24)"/><path class="cls-2" d="M493.75,111.06a8.52,8.52,0,0,1-.12,1.56H483.32a4.46,4.46,0,0,0,1.5,3.5,5.09,5.09,0,0,0,3.37,1.08,11.32,11.32,0,0,0,4.16-.73l.54,2.39a13,13,0,0,1-5.18,1,7.47,7.47,0,0,1-5.65-2.12A7.81,7.81,0,0,1,480,112a8.86,8.86,0,0,1,1.91-5.82,6.58,6.58,0,0,1,5.41-2.48,5.76,5.76,0,0,1,5.06,2.48,8.31,8.31,0,0,1,1.36,4.86m-3.28-.89a4.6,4.6,0,0,0-.66-2.64,3,3,0,0,0-2.74-1.43,3.27,3.27,0,0,0-2.73,1.4,5,5,0,0,0-1,2.67Z" transform="translate(-296.88 -69.24)"/></svg>