<svg id="Layer_1" data-name="Layer 1" xmlns="http://www.w3.org/2000/svg" xmlns:xlink="http://www.w3.org/1999/xlink" viewBox="0 0 217.61 64.05"><defs><style>.cls-1{fill:#a7a9ac;}.cls-2{fill:#fff;}.cls-3{fill:#5bc9f4;}.cls-4{fill:url(#linear-gradient);}.cls-5{fill:url(#linear-gradient-2);}.cls-6{fill:url(#linear-gradient-3);}</style><linearGradient id="linear-gradient" x1="341.38" y1="109.59" x2="302.5" y2="109.59" gradientUnits="userSpaceOnUse"><stop offset="0" stop-color="#fee000"/><stop offset="0.42" stop-color="#fbbc0e"/><stop offset="0.78" stop-color="#faa418"/><stop offset="1" stop-color="#f99b1c"/></linearGradient><linearGradient id="linear-gradient-2" x1="331.29" y1="113.28" x2="294.72" y2="149.85" gradientUnits="userSpaceOnUse"><stop offset="0" stop-color="#ef4547"/><stop offset="1" stop-color="#c6186d"/></linearGradient><linearGradient id="linear-gradient-3" x1="294.55" y1="69.16" x2="324.42" y2="99.02" gradientUnits="userSpaceOnUse"><stop offset="0" stop-color="#279e6f"/><stop offset="0.04" stop-color="#2ba06f"/><stop offset="0.46" stop-color="#53b26c"/><stop offset="0.8" stop-color="#6bbd6a"/><stop offset="1" stop-color="#74c169"/></linearGradient></defs><rect x="0.81" y="0.81" width="216" height="62.44" rx="7.38"/><path class="cls-1" d="M500.62,141.43H299.38a8.2,8.2,0,0,1-8.19-8.19V85.57a8.2,8.2,0,0,1,8.19-8.19H500.62a8.2,8.2,0,0,1,8.19,8.19v47.67A8.2,8.2,0,0,1,500.62,141.43ZM299.38,79a6.58,6.58,0,0,0-6.57,6.58v47.67a6.58,6.58,0,0,0,6.57,6.57H500.62a6.58,6.58,0,0,0,6.57-6.57V85.57A6.58,6.58,0,0,0,500.62,79Z" transform="translate(-291.19 -77.38)"/><path class="cls-2" d="M401,112.41a6.84,6.84,0,1,0,6.87,6.84A6.74,6.74,0,0,0,401,112.41Zm0,11a4.16,4.16,0,1,1,3.86-4.14A4,4,0,0,1,401,123.39Zm-15-11a6.84,6.84,0,1,0,6.87,6.84A6.74,6.74,0,0,0,386,112.41Zm0,11a4.16,4.16,0,1,1,3.86-4.14A4,4,0,0,1,386,123.39Zm-17.82-8.89v2.91h6.94a6,6,0,0,1-1.58,3.65,7.1,7.1,0,0,1-5.36,2.12,7.72,7.72,0,0,1,0-15.44,7.4,7.4,0,0,1,5.23,2.07l2.05-2a10.1,10.1,0,0,0-7.28-2.93,10.63,10.63,0,1,0,0,21.25,9.72,9.72,0,0,0,7.41-3,9.58,9.58,0,0,0,2.51-6.79,9.84,9.84,0,0,0-.15-1.82ZM441,116.76a6.34,6.34,0,0,0-5.85-4.35,6.49,6.49,0,0,0-6.45,6.84,6.69,6.69,0,0,0,6.78,6.84,6.8,6.8,0,0,0,5.7-3l-2.33-1.56a3.91,3.91,0,0,1-3.37,1.89,3.47,3.47,0,0,1-3.31-2.07l9.14-3.78ZM431.71,119a3.76,3.76,0,0,1,3.58-4,2.65,2.65,0,0,1,2.54,1.45Zm-7.43,6.63h3v-20.1h-3Zm-4.93-11.74h-.1a4.74,4.74,0,0,0-3.6-1.52,6.85,6.85,0,0,0,0,13.68,4.66,4.66,0,0,0,3.6-1.56h.1v1c0,2.61-1.39,4-3.65,4a3.77,3.77,0,0,1-3.44-2.43l-2.62,1.09a6.51,6.51,0,0,0,6.06,4c3.53,0,6.51-2.07,6.51-7.13V112.82h-2.86Zm-3.44,9.46a4.16,4.16,0,0,1,0-8.29c2,0,3.65,1.76,3.65,4.17A3.81,3.81,0,0,1,415.91,123.39Zm39.21-17.82h-7.19v20.1h3v-7.62h4.19a6.25,6.25,0,1,0,0-12.48Zm.08,9.69h-4.27v-6.9h4.27a3.45,3.45,0,1,1,0,6.9Zm18.55-2.89a5.64,5.64,0,0,0-5.36,3.08l2.67,1.11a2.85,2.85,0,0,1,2.74-1.48,2.9,2.9,0,0,1,3.16,2.59v.21a6.68,6.68,0,0,0-3.14-.78c-2.87,0-5.79,1.58-5.79,4.53,0,2.69,2.35,4.42,5,4.42a4.23,4.23,0,0,0,3.83-2H477v1.55h2.89v-7.71C479.85,114.36,477.19,112.37,473.75,112.37Zm-.36,11c-1,0-2.36-.49-2.36-1.71,0-1.55,1.71-2.15,3.18-2.15a5.37,5.37,0,0,1,2.75.68A3.65,3.65,0,0,1,473.39,123.39Zm17-10.58L487,121.53h-.11l-3.57-8.72h-3.23L485.41,125l-3.05,6.78h3.13l8.25-19Zm-27,12.86h3v-20.1h-3Z" transform="translate(-291.19 -77.38)"/><path class="cls-3" d="M308.16,89.56a3.24,3.24,0,0,0-.74,2.26v35.54a3.28,3.28,0,0,0,.74,2.26l.12.11,19.91-19.91v-.47L308.28,89.44Z" transform="translate(-291.19 -77.38)"/><path class="cls-4" d="M334.83,116.46l-6.64-6.64v-.47l6.64-6.63.15.08,7.86,4.47c2.25,1.27,2.25,3.36,0,4.64L335,116.38Z" transform="translate(-291.19 -77.38)"/><path class="cls-5" d="M335,116.38l-6.79-6.79-20,20c.74.78,2,.88,3.34.1L335,116.38" transform="translate(-291.19 -77.38)"/><path class="cls-6" d="M335,102.8,311.5,89.46c-1.37-.78-2.6-.68-3.34.1l20,20Z" transform="translate(-291.19 -77.38)"/><path class="cls-2" d="M365.12,90.7a3.42,3.42,0,0,0-2.28-.88,3.63,3.63,0,0,0,0,7.26,2.74,2.74,0,0,0,3-2.55h-2.69V93.42h4.15c0,3.32-1.78,4.89-4.48,4.89a4.86,4.86,0,0,1,0-9.71,4.68,4.68,0,0,1,3.2,1.25Z" transform="translate(-291.19 -77.38)"/><path class="cls-2" d="M374.66,88.71V89.9h-4.32v3h3.77v1.2h-3.77V97h4.46v1.2h-5.74V88.71Z" transform="translate(-291.19 -77.38)"/><path class="cls-2" d="M383,88.71v1.2h-2.87v8.26h-1.29V89.91h-2.88v-1.2Z" transform="translate(-291.19 -77.38)"/><path class="cls-2" d="M389.07,88.71v9.46H387.8V88.71Z" transform="translate(-291.19 -77.38)"/><path class="cls-2" d="M397.78,88.71v1.2h-2.87v8.26h-1.29V89.91h-2.87v-1.2Z" transform="translate(-291.19 -77.38)"/><path class="cls-2" d="M406.79,88.6A4.86,4.86,0,1,1,402,93.46,4.8,4.8,0,0,1,406.79,88.6Zm0,8.47a3.62,3.62,0,1,0-3.5-3.61A3.53,3.53,0,0,0,406.79,97.07Z" transform="translate(-291.19 -77.38)"/><path class="cls-2" d="M419.15,98.17,414.84,91v7.13h-1.28V88.71h1.27l4.27,7.07V88.71h1.27v9.46Z" transform="translate(-291.19 -77.38)"/></svg>